<svg width="56" height="20" fill="none" xmlns="http://www.w3.org/2000/svg"><path fill-rule="evenodd" clip-rule="evenodd" d="M41.3 11.51a2.024 2.024 0 01-.951 1.771l-2.681 1.55a1.861 1.861 0 01-2.517-.644 1.782 1.782 0 01.656-2.467l.605-.349a2.463 2.463 0 00-3.806 1.309 2.379 2.379 0 001.158 2.708c.39.213.83.32 1.274.308.8-.021 1.63 0 2.432 0a2.142 2.142 0 110 4.283h-2.313a6.942 6.942 0 01-3.518-.845 6.636 6.636 0 01-3.266-7.561 6.88 6.88 0 0112.22-2.047 3 3 0 01.707 1.984zM2.577-.008a2.552 2.552 0 012.578 2.525 2.552 2.552 0 01-2.578 2.526A2.552 2.552 0 010 2.517 2.552 2.552 0 012.577-.008zM.383 8.763a2.172 2.172 0 012.194-2.149A2.172 2.172 0 014.77 8.763v9.076a2.172 2.172 0 01-2.194 2.15 2.172 2.172 0 01-2.194-2.15V8.763h.001zm14.19 6.294a2.226 2.226 0 013.1.135 2.119 2.119 0 01-.138 3.037A6.955 6.955 0 0112.906 20a6.794 6.794 0 01-6.856-6.7 6.794 6.794 0 016.857-6.7 6.955 6.955 0 014.627 1.769 2.117 2.117 0 01.138 3.036 2.226 2.226 0 01-3.1.135 2.455 2.455 0 00-1.665-.62 2.38 2.38 0 100 4.757 2.453 2.453 0 001.667-.622l-.001.002zm11.545-8.443a2.15 2.15 0 110 4.3 2.413 2.413 0 00-2.437 2.386v4.538a2.194 2.194 0 01-4.388 0V13.3a6.758 6.758 0 016.825-6.688v.002zm22.926 9.078a2.145 2.145 0 11-.223 4.283 6.754 6.754 0 01-6.474-6.675A6.827 6.827 0 0156 13.3v4.538a2.194 2.194 0 01-4.388 0V13.3a2.438 2.438 0 10-2.565 2.391l-.003.001z" fill="#ADADAA"/></svg>