<svg width="48" height="60" fill="none" xmlns="http://www.w3.org/2000/svg"><path fill-rule="evenodd" clip-rule="evenodd" d="M24 0C10.745 0 0 10.745 0 24c0 19.09 24 36 24 36s24-16.91 24-36C48 10.745 37.3 0 24 0z" fill="#93AF2A"/><path fill-rule="evenodd" clip-rule="evenodd" d="M23.95 6C33.891 6 42 14.008 42 23.95 42 33.89 33.891 42 23.95 42S6 33.891 6 23.95 14.008 6 23.95 6z" fill="#fff"/><path fill-rule="evenodd" clip-rule="evenodd" d="M20.545 16.442c1.938 0 2.337.191 2.337 1.694v12.65c0 1.61-.456 1.886-2.679 1.886-.113 0-.113.328 0 .328 1.026 0 2.366-.055 3.79-.055 1.51 0 2.764.055 3.818.055.086 0 .086-.328 0-.328-2.308 0-2.65-.275-2.65-1.885V18.19c0-1.433.314-1.749 2.308-1.749 2.45 0 3.676 1.12 3.933 3.962 0 .169.313.169.313 0 0-.874.142-4.017.285-5.164 0-.137-.314-.137-.342 0-.2.574-.812.755-2.166.755-1.481 0-2.849.01-5.499.01-2.137 0-4.103-.027-5.66-.01-.608 0-1.634-.127-1.634-.673 0-.191-.314-.09-.314 0 0 1.257-.285 4.126-.385 5.082 0 .169.3.169.3.027.655-2.76 1.88-3.989 4.245-3.989z" fill="#373836"/></svg>