<?xml version="1.0" encoding="utf-8"?><svg viewBox="0 0 800 800" xmlns="http://www.w3.org/2000/svg" xmlns:xlink="http://www.w3.org/1999/xlink"><style>:root>svg{display:none}:root>svg:target{display:block}</style><svg fill="none" viewBox="0 0 24 18" id="icon-apple-color" xmlns="http://www.w3.org/2000/svg"><path d="M15.668 0c.118 1.054-.317 2.112-.959 2.874-.644.76-1.699 1.352-2.732 1.274-.14-1.034.381-2.11.977-2.785C13.62.602 14.741.037 15.668 0zM19.003 6.145c-.2.121-1.997 1.216-1.974 3.42.024 2.66 2.334 3.585 2.465 3.638a.408.408 0 00.006.002.91.91 0 00-.007.022c-.058.18-.43 1.341-1.269 2.538-.768 1.097-1.563 2.188-2.818 2.21-.604.012-1.007-.158-1.426-.336-.438-.185-.894-.378-1.616-.378-.755 0-1.233.199-1.693.39-.398.166-.783.327-1.325.348-1.21.045-2.133-1.184-2.907-2.277-1.583-2.235-2.792-6.316-1.168-9.07.805-1.369 2.247-2.235 3.811-2.258.674-.011 1.327.242 1.899.464.437.17.826.32 1.14.32.283 0 .662-.146 1.104-.316.695-.268 1.546-.596 2.423-.509.6.024 2.287.236 3.37 1.783l-.015.009z" fill="#000"/></svg><svg fill="none" viewBox="0 0 6 7" id="icon-arrow-breadcrumb" xmlns="http://www.w3.org/2000/svg"><path fill-rule="evenodd" clip-rule="evenodd" d="M0 0v7l6-3.5L0 0zm1 1.741v3.518L4.015 3.5 1 1.741z" fill="#ADADAA"/></svg><svg viewBox="0 0 21 11" id="icon-arrow-next" xmlns="http://www.w3.org/2000/svg"><path fill="currentColor" d="M20.791 5.09a.5.5 0 01.007.82l-6.975 4.98a.461.461 0 01-.32.12.5.5 0 01-.5-.5v-4.5H.486a.5.5 0 01-.5-.5.5.5 0 01.5-.5H13V.5a.5.5 0 01.789-.4l7 4.99zm-6.287-.08a.5.5 0 01.5.5.5.5 0 01-.5.5H14v3.53l5.647-4.03L14 1.47v3.54h.5z"/></svg><svg fill="none" viewBox="0 0 8 8" id="icon-arrow-next-short" xmlns="http://www.w3.org/2000/svg"><g clip-path="url(#adclip0_4236_3453)"><path fill-rule="evenodd" clip-rule="evenodd" d="M.5 8l6.988-4L.5 0v8z" fill="#fff"/></g><defs><clipPath id="adclip0_4236_3453"><path fill="#fff" transform="matrix(0 1 1 0 .5 0)" d="M0 0h8v7H0z"/></clipPath></defs></svg><svg fill="none" viewBox="0 0 17 12" id="icon-arrow-prev" xmlns="http://www.w3.org/2000/svg"><path fill-rule="evenodd" clip-rule="evenodd" d="M.709 6.405A.5.5 0 01.7 5.587L7.676.607A.5.5 0 018.5.991v4.5h12.514a.5.5 0 010 1H8.5V11a.5.5 0 01-.793.4l-7-5 .002.005zm6.29.088a.5.5 0 010-1h.5V1.962L1.854 5.994 7.5 10.025V6.493H7z" fill="currentColor"/></svg><svg fill="none" viewBox="0 0 10 8" id="icon-arrow-prev-short" xmlns="http://www.w3.org/2000/svg"><g clip-path="url(#afclip0_3502_21110)"><path fill-rule="evenodd" clip-rule="evenodd" d="M7.5 8L.512 4 7.5 0v8z" fill="#fff"/></g><defs><clipPath id="afclip0_3502_21110"><path fill="#fff" transform="rotate(90 3.75 3.75)" d="M0 0h8v7H0z"/></clipPath></defs></svg><svg fill="none" viewBox="0 0 11 16" id="icon-arrow-top" xmlns="http://www.w3.org/2000/svg"><g clip-path="url(#agclip0_3333_360)"><path fill-rule="evenodd" clip-rule="evenodd" d="M5.095.209a.5.5 0 01.818-.008l4.98 6.975a.5.5 0 01-.384.824h-4.5v12.514a.5.5 0 11-1 0V8H.5a.5.5 0 01-.4-.793l5-7-.005.002zM5.007 6.5a.5.5 0 011 0V7h3.531L5.506 1.353 1.475 7h3.532v-.5z" fill="#fff"/></g><defs><clipPath id="agclip0_3333_360"><path fill="#fff" transform="rotate(-90 10.5 10.5)" d="M0 0h21v11H0z"/></clipPath></defs></svg><svg fill="none" viewBox="0 0 16 16" id="icon-book" xmlns="http://www.w3.org/2000/svg"><path fill-rule="evenodd" clip-rule="evenodd" d="M2 3.256a8 8 0 015 .437v8.721a11.63 11.63 0 00-5-.523V3.256zm12 0v8.636a11.63 11.63 0 00-5 .523v-8.72a8 8 0 015-.438zm2-.756a1 1 0 00-.777-.968 10.054 10.054 0 00-3.8-.454c-1.182.096-2.34.392-3.423.875a10.464 10.464 0 00-3.426-.875 10.055 10.055 0 00-3.8.454A1 1 0 000 2.5V13a1 1 0 001.137.986 13.566 13.566 0 013.53-.1 7.114 7.114 0 012.758.92 1 1 0 001.15 0 7.115 7.115 0 012.758-.92 13.566 13.566 0 013.53.1 1 1 0 001.137-.98V2.5z" fill="currentColor"/></svg><svg fill="none" viewBox="0 0 16 16" id="icon-box" xmlns="http://www.w3.org/2000/svg"><path fill-rule="evenodd" clip-rule="evenodd" d="M7.61 15.92l-7-3.001A1.002 1.002 0 010 12V3.966c0-.445.291-.822.693-.952L7.613.078a.996.996 0 01.774 0l7 2.97a1 1 0 01.613.917V12c0 .438-.281.81-.672.946l-6.937 2.974a.983.983 0 01-.78 0zm6.392-10.435l-5 2.166v5.836l5-2.143V5.485zm-7 2.166L2 5.485v5.858l5.001 2.144V7.65zM3.528 3.975l4.473 1.938 4.472-1.937L8 2.08 3.53 3.975z" fill="currentColor"/></svg><svg fill="none" viewBox="0 0 8 6" id="icon-caret" xmlns="http://www.w3.org/2000/svg"><path fill-rule="evenodd" clip-rule="evenodd" d="M7.5.5L3.75 5.491 0 .5h7.5z" fill="currentColor"/></svg><svg fill="none" viewBox="0 0 5 5" id="icon-caret-white" xmlns="http://www.w3.org/2000/svg"><g clip-path="url(#akclip0_4305_10788)"><path fill-rule="evenodd" clip-rule="evenodd" d="M0 .5l2.5 3.993L5 .5H0z" fill="#fff"/></g><defs><clipPath id="akclip0_4305_10788"><path fill="#fff" transform="matrix(-1 0 0 1 5 .5)" d="M0 0h5v4H0z"/></clipPath></defs></svg><svg fill="none" viewBox="0 0 16 16" id="icon-cart" xmlns="http://www.w3.org/2000/svg"><g clip-path="url(#alclip0_3333_1645)"><path fill-rule="evenodd" clip-rule="evenodd" d="M5.507 13a1.5 1.5 0 110 2.999 1.5 1.5 0 010-2.999zm7.005 0a1.5 1.5 0 110 2.999 1.5 1.5 0 010-2.999zM4.2 3.99h6.815a1 1 0 010 1.994H4.721l1.055 4.01h6.574l1.714-5.312a1 1 0 111.9.611l-1.914 5.931a1 1 0 01-.974.773H5.007a1 1 0 01-.966-.745L1.676 2.257l-.985-.329A1 1 0 011.316.035l1.5.5a1 1 0 01.651.693L4.2 3.99z" fill="currentColor"/></g><defs><clipPath id="alclip0_3333_1645"><path fill="#fff" d="M0 0h16v16H0z"/></clipPath></defs></svg><svg fill="none" viewBox="0 0 20 20" id="icon-catalog" xmlns="http://www.w3.org/2000/svg"><g clip-path="url(#amclip0_3333_1630)"><path fill-rule="evenodd" clip-rule="evenodd" d="M5.611 18.238a10.858 10.858 0 01-5.507-7.821A9.867 9.867 0 01.94 5.11c1.602.202 3.164.644 4.634 1.31A13.127 13.127 0 0110.014 0a13.132 13.132 0 014.444 6.427 16.11 16.11 0 014.63-1.316 9.872 9.872 0 01.835 5.306 10.858 10.858 0 01-5.507 7.82c-3.972 2.319-4.83 2.319-8.805 0zM5.19 8.064a12.855 12.855 0 00-3.166-1.103 7.794 7.794 0 00-.273 3.248 9.407 9.407 0 005.412 6.993A12.725 12.725 0 015.19 8.064zm7.677 9.138a9.403 9.403 0 005.412-6.993A7.79 7.79 0 0018 6.96a12.854 12.854 0 00-3.166 1.103c.114.687.17 1.382.17 2.078a12.68 12.68 0 01-2.142 7.06h.004zm-2.853.874a11.112 11.112 0 000-15.866 11.111 11.111 0 000 15.866z" fill="currentColor"/></g><defs><clipPath id="amclip0_3333_1630"><path fill="#fff" d="M0 0h20v20H0z"/></clipPath></defs></svg><svg viewBox="0 0 14 14" id="icon-categories-icon" xmlns="http://www.w3.org/2000/svg"><path fill="currentColor" d="M3.926 12.771A7.6 7.6 0 01.07 7.295a6.923 6.923 0 01.585-3.714 11.277 11.277 0 013.246.917 9.189 9.189 0 013.108-4.5 9.2 9.2 0 013.108 4.5 11.27 11.27 0 013.245-.917 6.906 6.906 0 01.585 3.714 7.6 7.6 0 01-3.856 5.476c-2.783 1.626-3.382 1.626-6.165 0zm-.3-7.122a8.971 8.971 0 00-2.216-.773 5.472 5.472 0 00-.192 2.274 6.587 6.587 0 003.79 4.9 8.9 8.9 0 01-1.382-6.4zm5.376 6.4a6.583 6.583 0 003.789-4.9 5.455 5.455 0 00-.192-2.274 8.971 8.971 0 00-2.216.773 8.9 8.9 0 01-1.381 6.4zm-2 .611a7.782 7.782 0 000-11.108 7.78 7.78 0 000 11.108z"/></svg><svg fill="none" viewBox="0 0 9 7" id="icon-check" xmlns="http://www.w3.org/2000/svg"><path fill-rule="evenodd" clip-rule="evenodd" d="M7.294.274a1.05 1.05 0 011.415 0 .9.9 0 010 1.324L3.705 6.725a1.048 1.048 0 01-1.415 0L.288 4.563a.894.894 0 01.008-1.321 1.046 1.046 0 011.411 0l1.291 1.213L7.294.275z" fill="currentColor"/></svg><svg fill="none" viewBox="0 0 9 7" id="icon-check-light-green" xmlns="http://www.w3.org/2000/svg"><path fill-rule="evenodd" clip-rule="evenodd" d="M7.294.274a1.05 1.05 0 011.415 0 .9.9 0 010 1.324L3.705 6.725a1.048 1.048 0 01-1.415 0L.288 4.563a.894.894 0 01.008-1.321 1.046 1.046 0 011.411 0l1.291 1.213L7.294.275z" fill="#D5FE67"/></svg><svg fill="none" viewBox="0 0 16 16" id="icon-close" xmlns="http://www.w3.org/2000/svg"><path fill-rule="evenodd" clip-rule="evenodd" d="M9.407 8l6.306 6.306a.995.995 0 01-1.407 1.407L8 9.407l-6.306 6.305a.995.995 0 01-1.407-1.406L6.593 8 .287 1.694A.995.995 0 011.694.287L8 6.593 14.306.287a.995.995 0 011.407 1.407L9.407 8z" fill="currentColor"/></svg><svg fill="none" viewBox="0 0 60 60" id="icon-close-thin" xmlns="http://www.w3.org/2000/svg"><path d="M.302.301a1 1 0 000 1.415L28.586 30 .302 58.284a1 1 0 101.414 1.414L30 31.414l28.284 28.284a1 1 0 001.415-1.414L31.414 30 59.7 1.716A1 1 0 1058.284.3L30 28.586 1.716.3a1 1 0 00-1.414 0z" fill="currentColor"/></svg><svg viewBox="0 0 16 14" id="icon-download" xmlns="http://www.w3.org/2000/svg"><path fill="currentColor" d="M0 14v-4h2v2h12v-2h2v4H0zm8-4.99L3.98 5H7V0h2v5h3.02z"/></svg><svg fill="none" viewBox="0 0 22 16" id="icon-dzen" xmlns="http://www.w3.org/2000/svg"><path d="M12.463 6.357c1.208 1.207 3.01 1.436 6.204 1.479A7.998 7.998 0 0010.984.007c.038 3.284.255 5.125 1.48 6.35zm-3.438 0C10.25 5.131 10.466 3.29 10.505 0a7.999 7.999 0 00-7.838 7.837c3.29-.038 5.131-.254 6.357-1.48zm3.438 3.439c-1.205 1.206-1.434 3.008-1.478 6.196a7.997 7.997 0 007.674-7.674c-3.188.043-4.99.272-6.196 1.479v-.001zm-3.438 0c-1.226-1.225-3.066-1.441-6.35-1.48A7.998 7.998 0 0010.503 16c-.043-3.194-.271-4.997-1.479-6.203v-.001z" fill="currentColor"/></svg><svg fill="none" viewBox="0 0 16 16" id="icon-eye" xmlns="http://www.w3.org/2000/svg"><path d="M8 10a2 2 0 100-4 2 2 0 000 4z" fill="currentColor"/><path fill-rule="evenodd" clip-rule="evenodd" d="M16 7.99c-1.423 3.484-3.963 6-8 6V14c-4.037-.005-6.576-2.521-8-6 1.423-3.484 3.963-6 8-6s6.577 2.515 8 5.99zM14.146 8C12.761 5.55 11.073 3.7 8 3.7S3.24 5.549 1.854 8C3.239 10.45 4.927 12.3 8 12.3s4.761-1.854 6.146-4.3z" fill="currentColor"/></svg><svg fill="none" viewBox="0 0 21 16" id="icon-facebook" xmlns="http://www.w3.org/2000/svg"><g clip-path="url(#avclip0_105_549)"><path fill-rule="evenodd" clip-rule="evenodd" d="M9.188 5.333H6.562v2.674H9.14l.047 7.978h2.626V8.007h3.36l.522-2.674h-3.883V3.244a.59.59 0 01.169-.412.572.572 0 01.405-.172h3.364V-.015h-2.625c-2.625 0-3.938.667-3.938 3.188v2.16z" fill="currentColor"/></g><defs><clipPath id="avclip0_105_549"><path fill="#fff" d="M0 0h21v16H0z"/></clipPath></defs></svg><svg fill="none" viewBox="0 0 24 18" id="icon-facebook-color" xmlns="http://www.w3.org/2000/svg"><g clip-path="url(#awclip0_2814_18727)"><path fill-rule="evenodd" clip-rule="evenodd" d="M10.5 6h-3v3.007h2.946l.054 8.976h3V9.007h3.84L17.937 6H13.5V3.65a.659.659 0 01.655-.658H18V-.017h-3c-3 0-4.5.75-4.5 3.587V6z" fill="#4861A0"/></g><defs><clipPath id="awclip0_2814_18727"><path fill="#fff" d="M0 0h24v18H0z"/></clipPath></defs></svg><svg fill="none" viewBox="0 0 16 16" id="icon-favorite" xmlns="http://www.w3.org/2000/svg"><g clip-path="url(#axclip0_3333_1642)"><path fill-rule="evenodd" clip-rule="evenodd" d="M8 13.779c2.585-1.87 6-5.382 6-8.795 0-1.5-.794-2.99-2.473-2.99a2.61 2.61 0 00-2.547 2.18 1 1 0 01-1.962-.006 2.609 2.609 0 00-2.545-2.173C2.8 1.995 2 3.485 2 4.984 2 8.4 5.415 11.91 8 13.779zm.572 2.035a1 1 0 01-1.123.014C4.073 13.575 0 9.313 0 4.984 0 2.377 1.666-.007 4.473-.007A4.536 4.536 0 018 1.682a4.536 4.536 0 013.527-1.69C14.331-.008 16 2.369 16 4.984c0 4.323-4.06 8.575-7.428 10.83z" fill="currentColor"/></g><defs><clipPath id="axclip0_3333_1642"><path fill="#fff" d="M0 0h16v16H0z"/></clipPath></defs></svg><svg fill="none" viewBox="0 0 12 12" id="icon-filter" xmlns="http://www.w3.org/2000/svg"><g clip-path="url(#ayclip0_4236_2051)"><path fill-rule="evenodd" clip-rule="evenodd" d="M.091.75C.236.386.601 0 1.16 0h9.681c.56 0 .924.386 1.068.75.145.365.133.837-.148 1.225l-.001.002-3.798 5.221v2.143a.75.75 0 01-.286.589l-2.423 1.91a.75.75 0 01-1.214-.59V7.198L.24 1.975A1.285 1.285 0 01.09.75zm1.658.75l3.646 5.013a.75.75 0 01.143.442v2.75l.923-.728V6.955a.75.75 0 01.144-.442L10.25 1.5H1.749z" fill="#fff"/></g><defs><clipPath id="ayclip0_4236_2051"><path fill="#fff" d="M0 0h12v12H0z"/></clipPath></defs></svg><svg fill="none" viewBox="0 0 24 18" id="icon-google-color" xmlns="http://www.w3.org/2000/svg"><path d="M12 3.75c1.213 0 2.326.415 3.215 1.106l2.728-2.603A8.956 8.956 0 0012 0a8.995 8.995 0 00-7.96 4.807l3.033 2.395A5.247 5.247 0 0112 3.75z" fill="#F44336"/><path d="M20.922 10.126C20.969 9.758 21 9.382 21 9c0-.643-.07-1.27-.199-1.875H12v3.75h4.865a5.305 5.305 0 01-1.986 2.49l3.044 2.403a8.99 8.99 0 002.999-5.642z" fill="#2196F3"/><path d="M6.75 9c0-.633.118-1.236.323-1.798L4.039 4.807A8.954 8.954 0 003 9c0 1.498.371 2.907 1.019 4.15l3.037-2.398A5.228 5.228 0 016.75 9z" fill="#FFC107"/><path d="M12 14.25a5.247 5.247 0 01-4.944-3.498L4.019 13.15a8.994 8.994 0 007.98 4.85c2.272 0 4.342-.844 5.924-2.232l-3.045-2.403A5.123 5.123 0 0112 14.25z" fill="#00B060"/></svg><svg fill="none" viewBox="0 0 16 16" id="icon-image" xmlns="http://www.w3.org/2000/svg"><path d="M4.5 7a1.5 1.5 0 100-3 1.5 1.5 0 000 3z" fill="currentColor"/><path fill-rule="evenodd" clip-rule="evenodd" d="M1 1a1 1 0 00-1 1v12a1 1 0 001 1h14a1 1 0 001-1V2a1 1 0 00-1-1H1zm1 2v8.929l3-3.215 2.486 2.664L11.5 7 14 9.727V3H2z" fill="currentColor"/></svg><svg fill="none" viewBox="0 0 5 16" id="icon-info" xmlns="http://www.w3.org/2000/svg"><path d="M3.687 3.024c-.84 0-1.368-.504-1.368-1.392 0-.768.528-1.296 1.368-1.296.84 0 1.32.528 1.32 1.296 0 .888-.48 1.392-1.32 1.392zM2.08 15.216c-1.056 0-1.344-.816-1.032-2.352l.984-4.992c.168-.792 0-1.176-.36-1.176-.312 0-.792.312-1.368.96-.12.12-.312-.096-.216-.216 1.152-1.368 2.04-1.92 2.928-1.92 1.032 0 1.32.744 1.056 2.064l-1.008 5.28c-.168.912.048 1.128.312 1.128.336 0 .768-.36 1.272-.84.12-.12.312.072.192.192-1.008 1.2-1.8 1.872-2.76 1.872z" fill="currentColor"/></svg><svg viewBox="0 0 20 20" id="icon-inst-collection" xmlns="http://www.w3.org/2000/svg"><path d="M16.535 5.59a.554.554 0 00.16-.38V3.49a.564.564 0 00-.571-.55h-1.691a.563.563 0 00-.571.55v1.72a.563.563 0 00.571.55h1.691a.552.552 0 00.411-.17zm.949-4.95a4.949 4.949 0 00-2.5-.65H5.015a4.868 4.868 0 00-3.509 1.45 4.722 4.722 0 00-1.5 3.52v10.07a4.819 4.819 0 001.452 3.48A4.746 4.746 0 005.012 20h9.966a4.938 4.938 0 003.52-1.44 4.7 4.7 0 001.509-3.53V4.96a4.777 4.777 0 00-.686-2.5A4.856 4.856 0 0017.484.64zM2.809 2.72a3.106 3.106 0 012.206-.9h9.966a3.127 3.127 0 012.217.89 2.991 2.991 0 01.937 2.25v1.71h-5.3a4.759 4.759 0 00-5.486 0H1.86V4.96a2.982 2.982 0 01.949-2.24zm9.088 9.81a2.656 2.656 0 11-3.762-3.75 2.682 2.682 0 013.762 0 2.658 2.658 0 01.003 3.75zm5.3 4.73a3.1 3.1 0 01-2.194.89H5.015a3.125 3.125 0 01-2.217-.89 2.962 2.962 0 01-.937-2.23v-6.5h3.955a4.559 4.559 0 00-.457 2.11 4.4 4.4 0 001.406 3.25 4.619 4.619 0 003.326 1.37 4.516 4.516 0 003.372-1.42 4.763 4.763 0 001.383-3.46 3.931 3.931 0 00-.457-1.85h3.749v6.5a2.963 2.963 0 01-.938 2.23z" fill="currentColor"/></svg><svg fill="none" viewBox="0 0 21 16" id="icon-instagram" xmlns="http://www.w3.org/2000/svg"><g clip-path="url(#bdclip0_3333_106)"><path fill-rule="evenodd" clip-rule="evenodd" d="M15.64 4.477a.44.44 0 00.125-.3V2.802a.439.439 0 00-.126-.3.423.423 0 00-.322-.14h-1.333a.416.416 0 00-.324.138.436.436 0 00-.126.3v1.375c.002.113.047.22.126.3a.423.423 0 00.324.137h1.333a.418.418 0 00.322-.135zm.746-3.955A3.888 3.888 0 0014.418 0H6.569a3.785 3.785 0 00-1.497.297c-.475.2-.905.495-1.266.866-.378.36-.68.794-.883 1.278a3.825 3.825 0 00-.298 1.532v8.055a3.913 3.913 0 00.293 1.51c.196.478.485.91.85 1.273.36.385.795.69 1.277.894A3.708 3.708 0 006.57 16h7.847a3.832 3.832 0 001.499-.293 3.882 3.882 0 001.271-.857c.383-.358.686-.795.891-1.28a3.8 3.8 0 00.297-1.54V3.974a3.859 3.859 0 00-.54-1.995A3.893 3.893 0 0016.386.522zM4.833 2.19a2.406 2.406 0 011.736-.723h7.847a2.413 2.413 0 011.746.714 2.407 2.407 0 01.738 1.794v1.373h-4.176a3.708 3.708 0 00-2.16-.696c-.772 0-1.526.243-2.158.696h-4.32V3.974A2.401 2.401 0 014.27 3c.129-.308.32-.584.562-.811zm7.155 7.84a2.08 2.08 0 01-1.48.63 2.053 2.053 0 01-1.481-.63 2.095 2.095 0 01-.624-1.5 2.123 2.123 0 01.624-1.5 2.094 2.094 0 011.48-.616c.554 0 1.086.221 1.481.616.391.398.61.938.61 1.5a2.14 2.14 0 01-.611 1.5h.001zm4.174 3.776a2.421 2.421 0 01-1.731.714H6.569a2.41 2.41 0 01-1.746-.714 2.353 2.353 0 01-.556-.808 2.386 2.386 0 01-.182-.968V6.828h3.114a3.697 3.697 0 00-.36 1.684c-.004.488.093.971.284 1.42.19.447.47.85.823 1.181.341.353.75.632 1.2.821.45.19.932.284 1.419.28.496.008.989-.088 1.446-.284.458-.195.87-.485 1.211-.852.355-.363.634-.795.821-1.27.187-.475.278-.983.268-1.495a3.183 3.183 0 00-.36-1.483h2.952v5.201c.007.332-.056.662-.184.968-.128.306-.318.58-.558.806h.001z" fill="currentColor"/></g><defs><clipPath id="bdclip0_3333_106"><path fill="#fff" d="M0 0h21v16H0z"/></clipPath></defs></svg><svg fill="none" viewBox="0 0 5 8" id="icon-more" xmlns="http://www.w3.org/2000/svg"><path fill-rule="evenodd" clip-rule="evenodd" d="M0 0l4.991 4L0 8V0z" fill="currentColor"/></svg><svg fill="none" viewBox="0 0 16 16" id="icon-phone" xmlns="http://www.w3.org/2000/svg"><g clip-path="url(#bfclip0_3333_1621)"><path fill-rule="evenodd" clip-rule="evenodd" d="M11.966 11.995l.011-.011h.006l.006-.008.011-.015c1.979-1.988 4.265-4.911 3.974-7.9-.152-1.613-1.526-4.063-3.421-4.063a2.241 2.241 0 00-1.6.661L9.366 2.244a2.26 2.26 0 000 3.2l.634.629a.5.5 0 010 .708L6.785 9.994a.5.5 0 01-.707 0l-.633-.632a2.256 2.256 0 00-3.194 0l-1.59 1.591A2.241 2.241 0 000 12.547c0 1.895 2.45 3.269 4.064 3.421 2.993.291 5.917-1.994 7.9-3.974l.002.001zm2.415-7.784c.231 2.4-1.937 5.086-3.554 6.661-1.594 1.593-4.212 3.735-6.611 3.5-.767-.072-2.616-.897-2.616-1.825a.647.647 0 01.193-.466l1.59-1.592a.657.657 0 01.932 0l.7.705a2.006 2.006 0 002.828 0L11.2 7.841a2 2 0 000-2.828l-.7-.706a.657.657 0 010-.931l1.591-1.59a.647.647 0 01.466-.192c.926 0 1.754 1.848 1.828 2.616l-.004.001z" fill="currentColor"/></g><defs><clipPath id="bfclip0_3333_1621"><path fill="#fff" d="M0 0h16v16H0z"/></clipPath></defs></svg><svg fill="none" viewBox="0 0 21 18" id="icon-pinterest" xmlns="http://www.w3.org/2000/svg"><path fill-rule="evenodd" clip-rule="evenodd" d="M10.796 0C6.302 0 3.938 3.329 3.938 6.165c0 1.726.59 3.205 2.01 3.822.236.123.473 0 .473-.247 0-.123.118-.616.236-.74 0-.37 0-.37-.236-.616-.355-.493-.592-1.11-.592-1.973 0-2.466 1.774-4.808 4.73-4.808 2.602 0 4.02 1.603 4.02 3.822 0 2.836-1.182 5.301-3.074 5.301-1.064 0-1.774-.863-1.537-1.972.236-1.233.828-2.59.828-3.576 0-.863-.473-1.48-1.301-1.48-.946.124-1.774 1.234-1.774 2.713 0 .987.355 1.603.355 1.603s-1.064 4.562-1.3 5.425c-.355 1.603 0 3.576 0 3.822 0 .123.118.123.236 0s1.3-1.726 1.773-3.205c.119-.494.71-2.713.71-2.713.355.617 1.3 1.233 2.365 1.233 3.074 0 5.203-2.96 5.203-6.781C16.944 2.712 14.46 0 10.796 0z" fill="currentColor"/></svg><svg fill="none" viewBox="0 0 15 16" id="icon-plus" xmlns="http://www.w3.org/2000/svg"><path fill="currentColor" d="M7 3.028h1v9H7z"/><path fill="currentColor" d="M3 7.028h9v1H3z"/></svg><svg fill="none" viewBox="0 0 15 15" id="icon-restore" xmlns="http://www.w3.org/2000/svg"><path fill-rule="evenodd" clip-rule="evenodd" d="M10.44 7.068a4.145 4.145 0 00-.643-1.814 4.02 4.02 0 00-1.383-1.308 3.9 3.9 0 00-3.657-.11A4.004 4.004 0 003.3 5.06a4.133 4.133 0 00-.744 1.772 4.178 4.178 0 00.133 1.925c.194.621.53 1.186.982 1.647 1.2 1.236 2.348 1.188 3.805 1.188.25.021.48.138.65.326a1.034 1.034 0 010 1.381.986.986 0 01-.65.326c-2.025 0-3.537-.062-5.213-1.786A6.15 6.15 0 01.777 9.337a6.267 6.267 0 01-.183-2.923c.17-.976.57-1.894 1.164-2.676a5.997 5.997 0 012.244-1.815 5.845 5.845 0 015.541.324 6.046 6.046 0 012.028 2.065c.503.846.798 1.805.86 2.794l.312-.315a1 1 0 01.719-.363.974.974 0 01.747.298 1.023 1.023 0 01.29.765 1.04 1.04 0 01-.354.737l-1.99 2.04a.984.984 0 01-.701.296.983.983 0 01-.701-.296l-1.99-2.04A1.036 1.036 0 018.82 6.85a.98.98 0 011.345-.06l.274.278z" fill="currentColor"/></svg><svg fill="none" viewBox="0 0 16 16" id="icon-search" xmlns="http://www.w3.org/2000/svg"><g clip-path="url(#bjclip0_3333_1637)"><path fill-rule="evenodd" clip-rule="evenodd" d="M15.7 14.3l-3.1-3.1a7.028 7.028 0 10-1.4 1.4l3.1 3.1a.91.91 0 00.7.3 1 1 0 00.925-1.382.93.93 0 00-.225-.318zM2 7a5 5 0 1110 0A5 5 0 012 7z" fill="currentColor"/></g><defs><clipPath id="bjclip0_3333_1637"><path fill="#fff" d="M0 0h16v16H0z"/></clipPath></defs></svg><svg viewBox="0 0 14 14" id="icon-share" xmlns="http://www.w3.org/2000/svg"><path d="M8.914 5.156L5.982 6.623a3.068 3.068 0 010 .754l2.929 1.466A3 3 0 117.994 11a2.924 2.924 0 01.024-.377l-2.93-1.466a3 3 0 110-4.313L8.02 3.377A2.947 2.947 0 017.996 3a3.01 3.01 0 11.92 2.156zM11 2a1 1 0 101 1 1 1 0 00-1-1zm0 8a1 1 0 101 1 1 1 0 00-1-1zM3 6a1 1 0 101 1 1 1 0 00-1-1z" fill="currentColor"/></svg><svg fill="none" viewBox="0 0 10 20" id="icon-slash" xmlns="http://www.w3.org/2000/svg"><g clip-path="url(#blclip0_3333_1626)"><path fill-rule="evenodd" clip-rule="evenodd" d="M9 0h1L1 20H0L9 0z" fill="#ADADAA"/></g><defs><clipPath id="blclip0_3333_1626"><path fill="#fff" d="M0 0h10v20H0z"/></clipPath></defs></svg><svg fill="none" viewBox="0 0 10 20" id="icon-slash-white" xmlns="http://www.w3.org/2000/svg"><g clip-path="url(#bmclip0_3333_1626)"><path fill-rule="evenodd" clip-rule="evenodd" d="M9 0h1L1 20H0L9 0z" fill="#fff"/></g><defs><clipPath id="bmclip0_3333_1626"><path fill="#fff" d="M0 0h10v20H0z"/></clipPath></defs></svg><svg fill="none" viewBox="0 0 5 4" id="icon-sort-green" xmlns="http://www.w3.org/2000/svg"><g clip-path="url(#bnclip0_4236_3866)"><path fill-rule="evenodd" clip-rule="evenodd" d="M0 4L2.5.007 5 4H0z" fill="#93AF2A"/></g><defs><clipPath id="bnclip0_4236_3866"><path fill="#fff" transform="rotate(180 2.5 2)" d="M0 0h5v4H0z"/></clipPath></defs></svg><svg fill="none" viewBox="0 0 21 16" id="icon-telegram" xmlns="http://www.w3.org/2000/svg"><path d="M18.12.141s1.7-.692 1.56.99c-.048.692-.473 3.116-.804 5.738l-1.133 7.767s-.094 1.138-.944 1.336c-.85.197-2.125-.693-2.361-.89-.189-.15-3.541-2.376-4.722-3.464-.33-.297-.708-.89.047-1.583l4.958-4.947c.567-.593 1.133-1.979-1.227-.297l-6.61 4.7s-.756.495-2.173.05l-3.069-.99S.51 7.81 2.445 7.067c4.722-2.325 10.53-4.7 15.676-6.926z" fill="currentColor"/></svg><svg viewBox="0 0 32 32" id="icon-tg" xmlns="http://www.w3.org/2000/svg"><path d="M29.919 6.163l-4.225 19.925c-.319 1.406-1.15 1.756-2.331 1.094l-6.438-4.744-3.106 2.988c-.344.344-.631.631-1.294.631l.463-6.556L24.919 8.72c.519-.462-.113-.719-.806-.256l-14.75 9.288-6.35-1.988c-1.381-.431-1.406-1.381.288-2.044l24.837-9.569c1.15-.431 2.156.256 1.781 2.013z" fill="currentColor"/></svg><svg viewBox="0 0 12 10.03" id="icon-twitter" xmlns="http://www.w3.org/2000/svg"><path d="M3.069 2.37A6.394 6.394 0 01.85.48a2.617 2.617 0 00-.342 1.29 2.357 2.357 0 001.1 2.08 2.532 2.532 0 01-1.1-.32 2.627 2.627 0 00.541 1.62 2.318 2.318 0 001.4.92 4.537 4.537 0 01-.643.08 1.952 1.952 0 01-.439-.07 2.476 2.476 0 00.85 1.27 2.266 2.266 0 001.438.5A4.714 4.714 0 01.628 8.92a3.769 3.769 0 01-.616-.03 6.764 6.764 0 006.43.59A7.2 7.2 0 008.661 8a6.819 6.819 0 001.52-2.29 7.33 7.33 0 00.568-2.87v-.32a5.478 5.478 0 001.233-1.33 7.447 7.447 0 01-1.411.41A2.306 2.306 0 0011.64.2a5.97 5.97 0 01-1.562.59A2.216 2.216 0 008.311.01a2.335 2.335 0 00-1.766.75 2.485 2.485 0 00-.713 1.77 1.923 1.923 0 00.083.56v.02a6.808 6.808 0 01-2.846-.74z" fill="currentColor"/></svg><svg fill="none" viewBox="0 0 16 16" id="icon-user" xmlns="http://www.w3.org/2000/svg"><g clip-path="url(#brclip0_3333_1639)"><path fill-rule="evenodd" clip-rule="evenodd" d="M5 4.765c.067.37.263.705.554.944C6.43 6.693 6.455 9 8 9c1.545 0 1.567-2.3 2.449-3.29A1.59 1.59 0 0011 4.8a2.1 2.1 0 00-.683-1.144C10.148 2.024 10.032 2 8 2s-2.148.027-2.316 1.66A2.264 2.264 0 005 4.765zM8.03 11A4.374 4.374 0 016 10.484 2.51 2.51 0 014.749 9.09a8.711 8.711 0 00-.69-2.049 3.355 3.355 0 01-1.052-2.084 3.27 3.27 0 01.751-2.132C4.014.337 5.447 0 8 0s3.984.338 4.242 2.827c.496.599.762 1.355.751 2.132a3.347 3.347 0 01-1.053 2.082 8.776 8.776 0 00-.69 2.049A2.5 2.5 0 0110 10.484c-.604.333-1.28.51-1.97.516zm-5.265-.97a1 1 0 01.469 1.938A2.36 2.36 0 002.011 14h11.978a2.36 2.36 0 00-1.223-2.031 1 1 0 01.469-1.938A4.48 4.48 0 0116 13.848 2.006 2.006 0 0114 16H2a2.006 2.006 0 01-2-2.151 4.48 4.48 0 012.765-3.819z" fill="currentColor"/></g><defs><clipPath id="brclip0_3333_1639"><path fill="#fff" d="M0 0h16v16H0z"/></clipPath></defs></svg><svg fill="none" viewBox="0 0 14 12" id="icon-view-01" xmlns="http://www.w3.org/2000/svg"><path stroke="currentColor" stroke-width="2" d="M1 1h5v10H1z"/><path fill="currentColor" d="M9 3h5v2H9zM9 6h3v2H9z"/></svg><svg fill="none" viewBox="0 0 14 12" id="icon-view-02" xmlns="http://www.w3.org/2000/svg"><path fill="currentColor" d="M4 0v5H2V0zM4 7v5H2V7zM8 0v5H6V0zM8 7v5H6V7zM12 0v5h-2V0zM12 7v5h-2V7z"/></svg><svg viewBox="0 0 16 10" id="icon-vk" xmlns="http://www.w3.org/2000/svg"><path class="bucls-1" d="M1.716 5.06a16.06 16.06 0 001.507 2.3A7.312 7.312 0 005.14 9.12a5.091 5.091 0 002.221.79 8.933 8.933 0 001.058.08.912.912 0 00.978-1.08c0-.03.006-.1.017-.21s.018-.2.024-.25.016-.13.032-.23a.78.78 0 01.064-.23.915.915 0 01.1-.17.4.4 0 01.16-.13.487.487 0 01.209-.04 1.112 1.112 0 01.826.37 2.69 2.69 0 01.561.81 2.516 2.516 0 00.593.8 1.289 1.289 0 00.923.37 1.268 1.268 0 00.368-.03 2.155 2.155 0 01.305-.05c.107 0 .278.02.513.04a4.353 4.353 0 00.53.04 5.39 5.39 0 00.625-.02 1.244 1.244 0 00.473-.18.569.569 0 00.281-.45 6.268 6.268 0 00-2-2.74 2.045 2.045 0 01-.625-1.04 1.334 1.334 0 01.3-.78q.017-.03.321-.42.079-.1.329-.45c.165-.22.281-.38.345-.47s.165-.24.3-.44.243-.36.313-.46.155-.25.257-.43a2.827 2.827 0 00.224-.45c.048-.12.1-.25.145-.39a1.65 1.65 0 00.088-.4.393.393 0 00-.225-.35 1.11 1.11 0 00-.529-.13c-.235 0-.428.01-.577.01a1.691 1.691 0 00-.313.03.6.6 0 01-.1.01L12.923.4a.891.891 0 00-.554.14 1.109 1.109 0 00-.3.42l-.289.71c-.877 2.09-1.545 3.13-2 3.13a.407.407 0 01-.368-.21A1.231 1.231 0 019.259 4q-.024-.405-.016-.69c0-.2.027-.45.064-.76s.056-.49.056-.55c.022-.4.032-.65.032-.75a1.428 1.428 0 00-.256-.96A1.27 1.27 0 008.177 0h-1.2a1.81 1.81 0 00-1.748.66 1.236 1.236 0 00.289.14 2.7 2.7 0 01.3.15.751.751 0 01.225.27 3.44 3.44 0 01.208 1.21c0 1.63-.171 2.44-.513 2.44A1.933 1.933 0 014.92 4a11.173 11.173 0 01-1.363-2.65c-.011-.02-.037-.09-.08-.19a1.191 1.191 0 00-.08-.17C3.386.97 3.362.93 3.324.85a.624.624 0 00-.088-.14.647.647 0 01-.1-.1A.46.46 0 003 .51a.885.885 0 01-.169-.05.8.8 0 00-.216-.05C2.54.41 2.454.4 2.358.4s-.214.01-.353.01a3.3 3.3 0 00-.36.03c-.1.01-.158.01-.169.01L.626.42a.807.807 0 00-.513.12.432.432 0 00-.112.49L.53 2.45a21.431 21.431 0 001.186 2.61z" fill="currentColor"/></svg><svg fill="none" viewBox="0 0 21 16" id="icon-vk-color" xmlns="http://www.w3.org/2000/svg"><path fill-rule="evenodd" clip-rule="evenodd" d="M3.311 8.048c.505.868 1.083 1.69 1.728 2.457a8.422 8.422 0 002.195 1.878 6.07 6.07 0 002.545.836c.403.052.807.08 1.213.085a.979.979 0 00.842-.288 1.012 1.012 0 00.279-.856c0-.034.006-.11.018-.23l.028-.266c.006-.06.018-.133.037-.247a.832.832 0 01.073-.246c.035-.064.075-.124.12-.18a.425.425 0 01.183-.134.66.66 0 01.24-.044c.354 0 .694.14.947.392.263.246.481.538.643.862.167.331.398.624.68.862a1.56 1.56 0 001.056.392c.142.01.284-.002.423-.034.115-.026.232-.043.35-.051.122 0 .318.014.587.043.27.028.472.042.607.042.305 0 .544-.008.716-.025.192-.024.376-.088.542-.188a.607.607 0 00.324-.487 6.712 6.712 0 00-2.297-2.917 2.137 2.137 0 01-.721-1.11c.02-.31.142-.605.349-.835.012-.023.134-.171.367-.444.062-.079.187-.239.377-.478.19-.238.322-.4.394-.504.072-.104.19-.253.349-.469a11.262 11.262 0 00.652-.947c.1-.152.187-.311.263-.477.055-.133.11-.267.165-.417.052-.136.087-.278.102-.423a.42.42 0 00-.262-.376 1.278 1.278 0 00-.607-.133c-.269 0-.488.002-.656.008-.12.001-.24.01-.358.025-.067.01-.108.017-.12.017l-1.527-.058a1.078 1.078 0 00-.634.144 1.21 1.21 0 00-.34.452l-.33.75c-1.005 2.231-1.771 3.347-2.298 3.346a.473.473 0 01-.422-.222 1.321 1.321 0 01-.175-.64c-.014-.278-.025-.522-.014-.733.01-.21.03-.48.073-.81.043-.331.058-.523.058-.58.025-.434.037-.7.037-.8a1.457 1.457 0 00-.294-1.025 1.518 1.518 0 00-1.103-.306H9.338a2.139 2.139 0 00-1.09.085c-.351.122-.665.334-.913.615.104.065.215.117.331.153.122.04.24.094.35.161a.825.825 0 01.262.282c.162.412.243.853.239 1.297 0 1.729-.196 2.593-.588 2.593-.4-.2-.728-.522-.937-.921A11.532 11.532 0 015.43 4.092a2.008 2.008 0 01-.097-.199 1.908 1.908 0 00-.092-.188 1.877 1.877 0 01-.083-.144.475.475 0 00-.101-.145.936.936 0 01-.12-.11.338.338 0 00-.156-.106 1.919 1.919 0 01-.187-.057.932.932 0 00-.248-.052c-.087 0-.184-.008-.294-.008-.11 0-.246 0-.405.008-.158.008-.296.014-.413.025l-.193.017-.98-.033a.976.976 0 00-.587.133.437.437 0 00-.131.52l.609 1.514c.388.958.842 1.887 1.36 2.781z" fill="#537599"/></svg><svg viewBox="0 0 308 308" id="icon-whatsapp" xmlns="http://www.w3.org/2000/svg"><g fill="currentColor"><path d="M227.904 176.981c-.6-.288-23.054-11.345-27.044-12.781-1.629-.585-3.374-1.156-5.23-1.156-3.032 0-5.579 1.511-7.563 4.479-2.243 3.334-9.033 11.271-11.131 13.642-.274.313-.648.687-.872.687-.201 0-3.676-1.431-4.728-1.888-24.087-10.463-42.37-35.624-44.877-39.867-.358-.61-.373-.887-.376-.887.088-.323.898-1.135 1.316-1.554 1.223-1.21 2.548-2.805 3.83-4.348a140.77 140.77 0 011.812-2.153c1.86-2.164 2.688-3.844 3.648-5.79l.503-1.011c2.344-4.657.342-8.587-.305-9.856-.531-1.062-10.012-23.944-11.02-26.348-2.424-5.801-5.627-8.502-10.078-8.502-.413 0 0 0-1.732.073-2.109.089-13.594 1.601-18.672 4.802C90 87.918 80.89 98.74 80.89 117.772c0 17.129 10.87 33.302 15.537 39.453.116.155.329.47.638.922 17.873 26.102 40.154 45.446 62.741 54.469 21.745 8.686 32.042 9.69 37.896 9.69h.001c2.46 0 4.429-.193 6.166-.364l1.102-.105c7.512-.666 24.02-9.22 27.775-19.655 2.958-8.219 3.738-17.199 1.77-20.458-1.348-2.216-3.671-3.331-6.612-4.743z"/><path d="M156.734 0C73.318 0 5.454 67.354 5.454 150.143c0 26.777 7.166 52.988 20.741 75.928L.212 302.716a3.998 3.998 0 004.999 5.096l79.92-25.396c21.87 11.685 46.588 17.853 71.604 17.853C240.143 300.27 308 232.923 308 150.143 308 67.354 240.143 0 156.734 0zm0 268.994c-23.539 0-46.338-6.797-65.936-19.657a3.996 3.996 0 00-3.406-.467l-40.035 12.726 12.924-38.129a4.002 4.002 0 00-.561-3.647c-14.924-20.392-22.813-44.485-22.813-69.677 0-65.543 53.754-118.867 119.826-118.867 66.064 0 119.812 53.324 119.812 118.867.001 65.535-53.746 118.851-119.811 118.851z"/></g></svg><svg viewBox="0 0 33 33" id="icon-zoom" xmlns="http://www.w3.org/2000/svg"><path d="M14.992-.015a15 15 0 0111.29 24.877l6.418 6.419a1 1 0 01-1.414 1.414l-6.418-6.418A15 15 0 1114.992-.015zm0 2a13 13 0 1013 13 13 13 0 00-13-13zm-5 14a1 1 0 110-1.992h4v-4a1 1 0 011.992 0v4h4a1 1 0 110 1.992h-4v4.005a1 1 0 11-1.992 0v-4h-4z" fill="currentColor"/></svg><svg fill="none" viewBox="0 0 14 14" id="icon-zoom-small" xmlns="http://www.w3.org/2000/svg"><path d="M5.8 4.7a.7.7 0 111.4 0v1.1h1.1a.7.7 0 110 1.4H7.2v1.1a.7.7 0 11-1.4 0V7.2H4.7a.7.7 0 110-1.4h1.1V4.7z" fill="currentColor"/><path fill-rule="evenodd" clip-rule="evenodd" d="M10.575 11.565a6.5 6.5 0 11.99-.99l2.23 2.23a.7.7 0 11-.99.99l-2.23-2.23zM11.6 6.5a5.1 5.1 0 11-10.2 0 5.1 5.1 0 0110.2 0z" fill="currentColor"/></svg></svg>