<?xml version="1.0" encoding="utf-8"?><svg viewBox="0 0 60 60" xmlns="http://www.w3.org/2000/svg" xmlns:xlink="http://www.w3.org/1999/xlink"><style>:root>svg{display:none}:root>svg:target{display:block}</style><svg fill="none" viewBox="0 0 24 18" id="icon-apple-color" xmlns="http://www.w3.org/2000/svg"><path d="M15.668 0c.118 1.054-.317 2.112-.959 2.874-.644.76-1.699 1.352-2.732 1.274-.14-1.034.381-2.11.977-2.785C13.62.602 14.741.037 15.668 0zM19.003 6.145c-.2.121-1.997 1.216-1.974 3.42.024 2.66 2.334 3.585 2.465 3.638a.408.408 0 00.006.002.91.91 0 00-.007.022c-.058.18-.43 1.341-1.269 2.538-.768 1.097-1.563 2.188-2.818 2.21-.604.012-1.007-.158-1.426-.336-.438-.185-.894-.378-1.616-.378-.755 0-1.233.199-1.693.39-.398.166-.783.327-1.325.348-1.21.045-2.133-1.184-2.907-2.277-1.583-2.235-2.792-6.316-1.168-9.07.805-1.369 2.247-2.235 3.811-2.258.674-.011 1.327.242 1.899.464.437.17.826.32 1.14.32.283 0 .662-.146 1.104-.316.695-.268 1.546-.596 2.423-.509.6.024 2.287.236 3.37 1.783l-.015.009z" fill="#000"/></svg><svg fill="none" viewBox="0 0 6 7" id="icon-arrow-breadcrumb" xmlns="http://www.w3.org/2000/svg"><path fill-rule="evenodd" clip-rule="evenodd" d="M0 0v7l6-3.5L0 0zm1 1.741v3.518L4.015 3.5 1 1.741z" fill="#ADADAA"/></svg><svg viewBox="0 0 21 11" id="icon-arrow-next" xmlns="http://www.w3.org/2000/svg"><path fill="currentColor" d="M20.791 5.09a.5.5 0 01.007.82l-6.975 4.98a.461.461 0 01-.32.12.5.5 0 01-.5-.5v-4.5H.486a.5.5 0 01-.5-.5.5.5 0 01.5-.5H13V.5a.5.5 0 01.789-.4l7 4.99zm-6.287-.08a.5.5 0 01.5.5.5.5 0 01-.5.5H14v3.53l5.647-4.03L14 1.47v3.54h.5z"/></svg><svg fill="none" viewBox="0 0 11 16" id="icon-arrow-top" xmlns="http://www.w3.org/2000/svg"><g clip-path="url(#dclip0_3333_360)"><path fill-rule="evenodd" clip-rule="evenodd" d="M5.095.209a.5.5 0 01.818-.008l4.98 6.975a.5.5 0 01-.384.824h-4.5v12.514a.5.5 0 11-1 0V8H.5a.5.5 0 01-.4-.793l5-7-.005.002zM5.007 6.5a.5.5 0 011 0V7h3.531L5.506 1.353 1.475 7h3.532v-.5z" fill="#fff"/></g><defs><clipPath id="dclip0_3333_360"><path fill="#fff" transform="rotate(-90 10.5 10.5)" d="M0 0h21v11H0z"/></clipPath></defs></svg><svg fill="none" viewBox="0 0 16 16" id="icon-cart" xmlns="http://www.w3.org/2000/svg"><g clip-path="url(#eclip0_3333_1645)"><path fill-rule="evenodd" clip-rule="evenodd" d="M5.507 13a1.5 1.5 0 110 2.999 1.5 1.5 0 010-2.999zm7.005 0a1.5 1.5 0 110 2.999 1.5 1.5 0 010-2.999zM4.2 3.99h6.815a1 1 0 010 1.994H4.721l1.055 4.01h6.574l1.714-5.312a1 1 0 111.9.611l-1.914 5.931a1 1 0 01-.974.773H5.007a1 1 0 01-.966-.745L1.676 2.257l-.985-.329A1 1 0 011.316.035l1.5.5a1 1 0 01.651.693L4.2 3.99z" fill="currentColor"/></g><defs><clipPath id="eclip0_3333_1645"><path fill="#fff" d="M0 0h16v16H0z"/></clipPath></defs></svg><svg fill="none" viewBox="0 0 20 20" id="icon-catalog" xmlns="http://www.w3.org/2000/svg"><g clip-path="url(#fclip0_3333_1630)"><path fill-rule="evenodd" clip-rule="evenodd" d="M5.611 18.238a10.858 10.858 0 01-5.507-7.821A9.867 9.867 0 01.94 5.11c1.602.202 3.164.644 4.634 1.31A13.127 13.127 0 0110.014 0a13.132 13.132 0 014.444 6.427 16.11 16.11 0 014.63-1.316 9.872 9.872 0 01.835 5.306 10.858 10.858 0 01-5.507 7.82c-3.972 2.319-4.83 2.319-8.805 0zM5.19 8.064a12.855 12.855 0 00-3.166-1.103 7.794 7.794 0 00-.273 3.248 9.407 9.407 0 005.412 6.993A12.725 12.725 0 015.19 8.064zm7.677 9.138a9.403 9.403 0 005.412-6.993A7.79 7.79 0 0018 6.96a12.854 12.854 0 00-3.166 1.103c.114.687.17 1.382.17 2.078a12.68 12.68 0 01-2.142 7.06h.004zm-2.853.874a11.112 11.112 0 000-15.866 11.111 11.111 0 000 15.866z" fill="currentColor"/></g><defs><clipPath id="fclip0_3333_1630"><path fill="#fff" d="M0 0h20v20H0z"/></clipPath></defs></svg><svg viewBox="0 0 14 14" id="icon-categories-icon" xmlns="http://www.w3.org/2000/svg"><path fill="currentColor" d="M3.926 12.771A7.6 7.6 0 01.07 7.295a6.923 6.923 0 01.585-3.714 11.277 11.277 0 013.246.917 9.189 9.189 0 013.108-4.5 9.2 9.2 0 013.108 4.5 11.27 11.27 0 013.245-.917 6.906 6.906 0 01.585 3.714 7.6 7.6 0 01-3.856 5.476c-2.783 1.626-3.382 1.626-6.165 0zm-.3-7.122a8.971 8.971 0 00-2.216-.773 5.472 5.472 0 00-.192 2.274 6.587 6.587 0 003.79 4.9 8.9 8.9 0 01-1.382-6.4zm5.376 6.4a6.583 6.583 0 003.789-4.9 5.455 5.455 0 00-.192-2.274 8.971 8.971 0 00-2.216.773 8.9 8.9 0 01-1.381 6.4zm-2 .611a7.782 7.782 0 000-11.108 7.78 7.78 0 000 11.108z"/></svg><svg fill="none" viewBox="0 0 9 7" id="icon-check" xmlns="http://www.w3.org/2000/svg"><path fill-rule="evenodd" clip-rule="evenodd" d="M7.294.274a1.05 1.05 0 011.415 0 .9.9 0 010 1.324L3.705 6.725a1.048 1.048 0 01-1.415 0L.288 4.563a.894.894 0 01.008-1.321 1.046 1.046 0 011.411 0l1.291 1.213L7.294.275z" fill="#D5FE67"/></svg><svg fill="none" viewBox="0 0 16 16" id="icon-close" xmlns="http://www.w3.org/2000/svg"><path fill-rule="evenodd" clip-rule="evenodd" d="M9.407 8l6.306 6.306a.995.995 0 01-1.407 1.407L8 9.407l-6.306 6.305a.995.995 0 01-1.407-1.406L6.593 8 .287 1.694A.995.995 0 011.694.287L8 6.593 14.306.287a.995.995 0 011.407 1.407L9.407 8z" fill="currentColor"/></svg><svg fill="none" viewBox="0 0 60 60" id="icon-close-thin" xmlns="http://www.w3.org/2000/svg"><path d="M.302.301a1 1 0 000 1.415L28.586 30 .302 58.284a1 1 0 101.414 1.414L30 31.414l28.284 28.284a1 1 0 001.415-1.414L31.414 30 59.7 1.716A1 1 0 1058.284.3L30 28.586 1.716.3a1 1 0 00-1.414 0z" fill="currentColor"/></svg><svg fill="none" viewBox="0 0 22 16" id="icon-dzen" xmlns="http://www.w3.org/2000/svg"><path d="M12.463 6.357c1.208 1.207 3.01 1.436 6.204 1.479A7.998 7.998 0 0010.984.007c.038 3.284.255 5.125 1.48 6.35zm-3.438 0C10.25 5.131 10.466 3.29 10.505 0a7.999 7.999 0 00-7.838 7.837c3.29-.038 5.131-.254 6.357-1.48zm3.438 3.439c-1.205 1.206-1.434 3.008-1.478 6.196a7.997 7.997 0 007.674-7.674c-3.188.043-4.99.272-6.196 1.479v-.001zm-3.438 0c-1.226-1.225-3.066-1.441-6.35-1.48A7.998 7.998 0 0010.503 16c-.043-3.194-.271-4.997-1.479-6.203v-.001z" fill="currentColor"/></svg><svg fill="none" viewBox="0 0 21 16" id="icon-facebook" xmlns="http://www.w3.org/2000/svg"><g clip-path="url(#lclip0_105_549)"><path fill-rule="evenodd" clip-rule="evenodd" d="M9.188 5.333H6.562v2.674H9.14l.047 7.978h2.626V8.007h3.36l.522-2.674h-3.883V3.244a.59.59 0 01.169-.412.572.572 0 01.405-.172h3.364V-.015h-2.625c-2.625 0-3.938.667-3.938 3.188v2.16z" fill="currentColor"/></g><defs><clipPath id="lclip0_105_549"><path fill="#fff" d="M0 0h21v16H0z"/></clipPath></defs></svg><svg fill="none" viewBox="0 0 24 18" id="icon-facebook-color" xmlns="http://www.w3.org/2000/svg"><g clip-path="url(#mclip0_2814_18727)"><path fill-rule="evenodd" clip-rule="evenodd" d="M10.5 6h-3v3.007h2.946l.054 8.976h3V9.007h3.84L17.937 6H13.5V3.65a.659.659 0 01.655-.658H18V-.017h-3c-3 0-4.5.75-4.5 3.587V6z" fill="#4861A0"/></g><defs><clipPath id="mclip0_2814_18727"><path fill="#fff" d="M0 0h24v18H0z"/></clipPath></defs></svg><svg fill="none" viewBox="0 0 16 16" id="icon-favorite" xmlns="http://www.w3.org/2000/svg"><g clip-path="url(#nclip0_3333_1642)"><path fill-rule="evenodd" clip-rule="evenodd" d="M8 13.779c2.585-1.87 6-5.382 6-8.795 0-1.5-.794-2.99-2.473-2.99a2.61 2.61 0 00-2.547 2.18 1 1 0 01-1.962-.006 2.609 2.609 0 00-2.545-2.173C2.8 1.995 2 3.485 2 4.984 2 8.4 5.415 11.91 8 13.779zm.572 2.035a1 1 0 01-1.123.014C4.073 13.575 0 9.313 0 4.984 0 2.377 1.666-.007 4.473-.007A4.536 4.536 0 018 1.682a4.536 4.536 0 013.527-1.69C14.331-.008 16 2.369 16 4.984c0 4.323-4.06 8.575-7.428 10.83z" fill="currentColor"/></g><defs><clipPath id="nclip0_3333_1642"><path fill="#fff" d="M0 0h16v16H0z"/></clipPath></defs></svg><svg fill="none" viewBox="0 0 24 18" id="icon-google-color" xmlns="http://www.w3.org/2000/svg"><path d="M12 3.75c1.213 0 2.326.415 3.215 1.106l2.728-2.603A8.956 8.956 0 0012 0a8.995 8.995 0 00-7.96 4.807l3.033 2.395A5.247 5.247 0 0112 3.75z" fill="#F44336"/><path d="M20.922 10.126C20.969 9.758 21 9.382 21 9c0-.643-.07-1.27-.199-1.875H12v3.75h4.865a5.305 5.305 0 01-1.986 2.49l3.044 2.403a8.99 8.99 0 002.999-5.642z" fill="#2196F3"/><path d="M6.75 9c0-.633.118-1.236.323-1.798L4.039 4.807A8.954 8.954 0 003 9c0 1.498.371 2.907 1.019 4.15l3.037-2.398A5.228 5.228 0 016.75 9z" fill="#FFC107"/><path d="M12 14.25a5.247 5.247 0 01-4.944-3.498L4.019 13.15a8.994 8.994 0 007.98 4.85c2.272 0 4.342-.844 5.924-2.232l-3.045-2.403A5.123 5.123 0 0112 14.25z" fill="#00B060"/></svg><svg fill="none" viewBox="0 0 21 16" id="icon-instagram" xmlns="http://www.w3.org/2000/svg"><g clip-path="url(#pclip0_3333_106)"><path fill-rule="evenodd" clip-rule="evenodd" d="M15.64 4.477a.44.44 0 00.125-.3V2.802a.439.439 0 00-.126-.3.423.423 0 00-.322-.14h-1.333a.416.416 0 00-.324.138.436.436 0 00-.126.3v1.375c.002.113.047.22.126.3a.423.423 0 00.324.137h1.333a.418.418 0 00.322-.135zm.746-3.955A3.888 3.888 0 0014.418 0H6.569a3.785 3.785 0 00-1.497.297c-.475.2-.905.495-1.266.866-.378.36-.68.794-.883 1.278a3.825 3.825 0 00-.298 1.532v8.055a3.913 3.913 0 00.293 1.51c.196.478.485.91.85 1.273.36.385.795.69 1.277.894A3.708 3.708 0 006.57 16h7.847a3.832 3.832 0 001.499-.293 3.882 3.882 0 001.271-.857c.383-.358.686-.795.891-1.28a3.8 3.8 0 00.297-1.54V3.974a3.859 3.859 0 00-.54-1.995A3.893 3.893 0 0016.386.522zM4.833 2.19a2.406 2.406 0 011.736-.723h7.847a2.413 2.413 0 011.746.714 2.407 2.407 0 01.738 1.794v1.373h-4.176a3.708 3.708 0 00-2.16-.696c-.772 0-1.526.243-2.158.696h-4.32V3.974A2.401 2.401 0 014.27 3c.129-.308.32-.584.562-.811zm7.155 7.84a2.08 2.08 0 01-1.48.63 2.053 2.053 0 01-1.481-.63 2.095 2.095 0 01-.624-1.5 2.123 2.123 0 01.624-1.5 2.094 2.094 0 011.48-.616c.554 0 1.086.221 1.481.616.391.398.61.938.61 1.5a2.14 2.14 0 01-.611 1.5h.001zm4.174 3.776a2.421 2.421 0 01-1.731.714H6.569a2.41 2.41 0 01-1.746-.714 2.353 2.353 0 01-.556-.808 2.386 2.386 0 01-.182-.968V6.828h3.114a3.697 3.697 0 00-.36 1.684c-.004.488.093.971.284 1.42.19.447.47.85.823 1.181.341.353.75.632 1.2.821.45.19.932.284 1.419.28.496.008.989-.088 1.446-.284.458-.195.87-.485 1.211-.852.355-.363.634-.795.821-1.27.187-.475.278-.983.268-1.495a3.183 3.183 0 00-.36-1.483h2.952v5.201c.007.332-.056.662-.184.968-.128.306-.318.58-.558.806h.001z" fill="currentColor"/></g><defs><clipPath id="pclip0_3333_106"><path fill="#fff" d="M0 0h21v16H0z"/></clipPath></defs></svg><svg fill="none" viewBox="0 0 16 16" id="icon-phone" xmlns="http://www.w3.org/2000/svg"><g clip-path="url(#qclip0_3333_1621)"><path fill-rule="evenodd" clip-rule="evenodd" d="M11.966 11.995l.011-.011h.006l.006-.008.011-.015c1.979-1.988 4.265-4.911 3.974-7.9-.152-1.613-1.526-4.063-3.421-4.063a2.241 2.241 0 00-1.6.661L9.366 2.244a2.26 2.26 0 000 3.2l.634.629a.5.5 0 010 .708L6.785 9.994a.5.5 0 01-.707 0l-.633-.632a2.256 2.256 0 00-3.194 0l-1.59 1.591A2.241 2.241 0 000 12.547c0 1.895 2.45 3.269 4.064 3.421 2.993.291 5.917-1.994 7.9-3.974l.002.001zm2.415-7.784c.231 2.4-1.937 5.086-3.554 6.661-1.594 1.593-4.212 3.735-6.611 3.5-.767-.072-2.616-.897-2.616-1.825a.647.647 0 01.193-.466l1.59-1.592a.657.657 0 01.932 0l.7.705a2.006 2.006 0 002.828 0L11.2 7.841a2 2 0 000-2.828l-.7-.706a.657.657 0 010-.931l1.591-1.59a.647.647 0 01.466-.192c.926 0 1.754 1.848 1.828 2.616l-.004.001z" fill="currentColor"/></g><defs><clipPath id="qclip0_3333_1621"><path fill="#fff" d="M0 0h16v16H0z"/></clipPath></defs></svg><svg fill="none" viewBox="0 0 21 18" id="icon-pinterest" xmlns="http://www.w3.org/2000/svg"><path fill-rule="evenodd" clip-rule="evenodd" d="M10.796 0C6.302 0 3.938 3.329 3.938 6.165c0 1.726.59 3.205 2.01 3.822.236.123.473 0 .473-.247 0-.123.118-.616.236-.74 0-.37 0-.37-.236-.616-.355-.493-.592-1.11-.592-1.973 0-2.466 1.774-4.808 4.73-4.808 2.602 0 4.02 1.603 4.02 3.822 0 2.836-1.182 5.301-3.074 5.301-1.064 0-1.774-.863-1.537-1.972.236-1.233.828-2.59.828-3.576 0-.863-.473-1.48-1.301-1.48-.946.124-1.774 1.234-1.774 2.713 0 .987.355 1.603.355 1.603s-1.064 4.562-1.3 5.425c-.355 1.603 0 3.576 0 3.822 0 .123.118.123.236 0s1.3-1.726 1.773-3.205c.119-.494.71-2.713.71-2.713.355.617 1.3 1.233 2.365 1.233 3.074 0 5.203-2.96 5.203-6.781C16.944 2.712 14.46 0 10.796 0z" fill="currentColor"/></svg><svg fill="none" viewBox="0 0 16 16" id="icon-search" xmlns="http://www.w3.org/2000/svg"><g clip-path="url(#sclip0_3333_1637)"><path fill-rule="evenodd" clip-rule="evenodd" d="M15.7 14.3l-3.1-3.1a7.028 7.028 0 10-1.4 1.4l3.1 3.1a.91.91 0 00.7.3 1 1 0 00.925-1.382.93.93 0 00-.225-.318zM2 7a5 5 0 1110 0A5 5 0 012 7z" fill="currentColor"/></g><defs><clipPath id="sclip0_3333_1637"><path fill="#fff" d="M0 0h16v16H0z"/></clipPath></defs></svg><svg fill="none" viewBox="0 0 10 20" id="icon-slash" xmlns="http://www.w3.org/2000/svg"><g clip-path="url(#tclip0_3333_1626)"><path fill-rule="evenodd" clip-rule="evenodd" d="M9 0h1L1 20H0L9 0z" fill="#ADADAA"/></g><defs><clipPath id="tclip0_3333_1626"><path fill="#fff" d="M0 0h10v20H0z"/></clipPath></defs></svg><svg fill="none" viewBox="0 0 10 20" id="icon-slash-white" xmlns="http://www.w3.org/2000/svg"><g clip-path="url(#uclip0_3333_1626)"><path fill-rule="evenodd" clip-rule="evenodd" d="M9 0h1L1 20H0L9 0z" fill="#fff"/></g><defs><clipPath id="uclip0_3333_1626"><path fill="#fff" d="M0 0h10v20H0z"/></clipPath></defs></svg><svg fill="none" viewBox="0 0 21 16" id="icon-telegram" xmlns="http://www.w3.org/2000/svg"><path d="M18.12.141s1.7-.692 1.56.99c-.048.692-.473 3.116-.804 5.738l-1.133 7.767s-.094 1.138-.944 1.336c-.85.197-2.125-.693-2.361-.89-.189-.15-3.541-2.376-4.722-3.464-.33-.297-.708-.89.047-1.583l4.958-4.947c.567-.593 1.133-1.979-1.227-.297l-6.61 4.7s-.756.495-2.173.05l-3.069-.99S.51 7.81 2.445 7.067c4.722-2.325 10.53-4.7 15.676-6.926z" fill="currentColor"/></svg><svg fill="none" viewBox="0 0 16 16" id="icon-user" xmlns="http://www.w3.org/2000/svg"><g clip-path="url(#wclip0_3333_1639)"><path fill-rule="evenodd" clip-rule="evenodd" d="M5 4.765c.067.37.263.705.554.944C6.43 6.693 6.455 9 8 9c1.545 0 1.567-2.3 2.449-3.29A1.59 1.59 0 0011 4.8a2.1 2.1 0 00-.683-1.144C10.148 2.024 10.032 2 8 2s-2.148.027-2.316 1.66A2.264 2.264 0 005 4.765zM8.03 11A4.374 4.374 0 016 10.484 2.51 2.51 0 014.749 9.09a8.711 8.711 0 00-.69-2.049 3.355 3.355 0 01-1.052-2.084 3.27 3.27 0 01.751-2.132C4.014.337 5.447 0 8 0s3.984.338 4.242 2.827c.496.599.762 1.355.751 2.132a3.347 3.347 0 01-1.053 2.082 8.776 8.776 0 00-.69 2.049A2.5 2.5 0 0110 10.484c-.604.333-1.28.51-1.97.516zm-5.265-.97a1 1 0 01.469 1.938A2.36 2.36 0 002.011 14h11.978a2.36 2.36 0 00-1.223-2.031 1 1 0 01.469-1.938A4.48 4.48 0 0116 13.848 2.006 2.006 0 0114 16H2a2.006 2.006 0 01-2-2.151 4.48 4.48 0 012.765-3.819z" fill="currentColor"/></g><defs><clipPath id="wclip0_3333_1639"><path fill="#fff" d="M0 0h16v16H0z"/></clipPath></defs></svg><svg fill="none" viewBox="0 0 21 16" id="icon-vk" xmlns="http://www.w3.org/2000/svg"><path fill-rule="evenodd" clip-rule="evenodd" d="M3.311 8.048c.505.868 1.083 1.69 1.728 2.457a8.422 8.422 0 002.195 1.878 6.07 6.07 0 002.545.836c.403.052.807.08 1.213.085a.979.979 0 00.842-.288 1.012 1.012 0 00.279-.856c0-.034.006-.11.018-.23l.028-.266c.006-.06.018-.133.037-.247a.832.832 0 01.073-.246c.035-.064.075-.124.12-.18a.425.425 0 01.183-.134.66.66 0 01.24-.044c.354 0 .694.14.947.392.263.246.481.538.643.862.167.331.398.624.68.862a1.56 1.56 0 001.056.392c.142.01.284-.002.423-.034.115-.026.232-.043.35-.051.122 0 .318.014.587.043.27.028.472.042.607.042.305 0 .544-.008.716-.025.192-.024.376-.088.542-.188a.607.607 0 00.324-.487 6.712 6.712 0 00-2.297-2.917 2.137 2.137 0 01-.721-1.11c.02-.31.142-.605.349-.835.012-.023.134-.171.367-.444.062-.079.187-.239.377-.478.19-.238.322-.4.394-.504.072-.104.19-.253.349-.469a11.262 11.262 0 00.652-.947c.1-.152.187-.311.263-.477.055-.133.11-.267.165-.417.052-.136.087-.278.102-.423a.42.42 0 00-.262-.376 1.278 1.278 0 00-.607-.133c-.269 0-.488.002-.656.008-.12.001-.24.01-.358.025-.067.01-.108.017-.12.017l-1.527-.058a1.078 1.078 0 00-.634.144 1.21 1.21 0 00-.34.452l-.33.75c-1.005 2.231-1.771 3.347-2.298 3.346a.473.473 0 01-.422-.222 1.321 1.321 0 01-.175-.64c-.014-.278-.025-.522-.014-.733.01-.21.03-.48.073-.81.043-.331.058-.523.058-.58.025-.434.037-.7.037-.8a1.457 1.457 0 00-.294-1.025 1.518 1.518 0 00-1.103-.306H9.338a2.139 2.139 0 00-1.09.085c-.351.122-.665.334-.913.615.104.065.215.117.331.153.122.04.24.094.35.161a.825.825 0 01.262.282c.162.412.243.853.239 1.297 0 1.729-.196 2.593-.588 2.593-.4-.2-.728-.522-.937-.921A11.532 11.532 0 015.43 4.092a2.008 2.008 0 01-.097-.199 1.908 1.908 0 00-.092-.188 1.877 1.877 0 01-.083-.144.475.475 0 00-.101-.145.936.936 0 01-.12-.11.338.338 0 00-.156-.106 1.919 1.919 0 01-.187-.057.932.932 0 00-.248-.052c-.087 0-.184-.008-.294-.008-.11 0-.246 0-.405.008-.158.008-.296.014-.413.025l-.193.017-.98-.033a.976.976 0 00-.587.133.437.437 0 00-.131.52l.609 1.514c.388.958.842 1.887 1.36 2.781z" fill="currentColor"/></svg><svg fill="none" viewBox="0 0 24 18" id="icon-vk-color" xmlns="http://www.w3.org/2000/svg"><path fill-rule="evenodd" clip-rule="evenodd" d="M3.784 9.054a19.583 19.583 0 001.974 2.764 9.587 9.587 0 002.51 2.113 7.013 7.013 0 002.909.94c.46.059.922.091 1.386.096a1.136 1.136 0 001.28-1.287c0-.038.008-.124.021-.258l.032-.3c.007-.067.021-.15.042-.277a.924.924 0 01.084-.278c.04-.071.085-.139.136-.203a.486.486 0 01.21-.15.764.764 0 01.275-.049c.404 0 .793.158 1.082.441.3.276.55.604.734.969.191.373.456.703.777.97a1.8 1.8 0 001.208.441c.162.011.325-.002.483-.039a2.67 2.67 0 01.399-.056c.14 0 .364.015.672.047.308.032.539.048.693.048.35 0 .623-.009.819-.028a1.59 1.59 0 00.62-.212.689.689 0 00.37-.547 7.57 7.57 0 00-2.625-3.282 2.4 2.4 0 01-.825-1.248c.022-.35.163-.681.399-.94.014-.027.154-.193.42-.5.07-.089.213-.269.43-.537.218-.269.368-.45.45-.567.083-.117.218-.285.4-.528.181-.243.317-.429.409-.557.091-.127.203-.3.336-.508a4.01 4.01 0 00.3-.537c.063-.15.126-.3.189-.47.06-.152.1-.312.117-.475a.468.468 0 00-.3-.423 1.48 1.48 0 00-.693-.15c-.308 0-.558.003-.75.009a3.625 3.625 0 00-.41.028c-.076.012-.123.02-.136.02l-1.746-.066a1.248 1.248 0 00-.724.162c-.168.136-.302.31-.389.508l-.378.845c-1.148 2.51-2.023 3.764-2.625 3.763a.548.548 0 01-.483-.249 1.468 1.468 0 01-.2-.72 8.381 8.381 0 01-.016-.825c.012-.237.034-.54.084-.912s.066-.588.066-.652c.028-.488.042-.788.042-.9.04-.413-.08-.825-.336-1.152a1.755 1.755 0 00-1.26-.345h-1.574a2.481 2.481 0 00-2.289.787c.118.074.246.132.378.173.14.045.274.105.4.181.123.08.226.19.3.317.184.464.277.96.272 1.46 0 1.944-.224 2.917-.672 2.917a2.433 2.433 0 01-1.07-1.037 12.915 12.915 0 01-1.786-3.186 2.244 2.244 0 01-.11-.223 2.135 2.135 0 00-.106-.212 2.101 2.101 0 01-.094-.162.534.534 0 00-.116-.163 1.063 1.063 0 01-.136-.125.387.387 0 00-.179-.118 2.22 2.22 0 01-.214-.065 1.08 1.08 0 00-.284-.058c-.099 0-.21-.009-.336-.009-.126 0-.28 0-.462.009-.181.009-.339.016-.472.028l-.22.02-1.12-.038a1.13 1.13 0 00-.672.15.49.49 0 00-.15.585l.696 1.703a24.86 24.86 0 001.554 3.129z" fill="#537599"/></svg></svg>